<svg width="60" height="12" viewBox="0 0 60 12" fill="none" xmlns="http://www.w3.org/2000/svg">
<path d="M60 2.09608C59.9975 0.725425 58.6271 -0.305999 57.3329 0.0868653C56.6028 0.308865 56.1431 0.840166 55.8149 1.50616C54.7923 3.58398 53.7721 5.66179 52.7508 7.73961C52.7237 7.79324 52.6955 7.84562 52.6672 7.89925C52.6574 7.89426 52.6475 7.88927 52.6365 7.88428C52.6365 7.88428 52.6365 4.08036 52.6352 2.26944C52.6352 2.12851 52.6242 1.98633 52.607 1.84665C52.4287 0.418617 50.8567 -0.424482 49.5957 0.231539C49.0475 0.517145 48.6923 0.983593 48.4243 1.52737C47.9118 2.57126 46.1431 6.2118 46.0079 6.48743C45.7769 6.95762 45.5446 7.42781 45.3123 7.89675C45.3012 7.89551 45.2914 7.89301 45.2803 7.89176C45.2803 7.89176 45.2803 4.06664 45.2791 2.25074C45.2791 2.0911 45.2668 1.93021 45.2422 1.77306C45.0455 0.495943 43.6653 -0.323459 42.4743 0.128022C41.7958 0.384943 41.3742 0.908762 41.062 1.54358C40.0456 3.61017 39.0303 5.67801 38.0151 7.7446C37.988 7.79947 37.9573 7.8531 37.929 7.90673C37.918 7.90174 37.9069 7.89675 37.8959 7.89052C37.8959 7.89052 37.8983 3.95938 37.8959 2.09359C37.8934 0.722931 36.523 -0.308493 35.2287 0.0843709C34.4986 0.30637 34.0389 0.837672 33.7108 1.50367C32.8971 3.15744 30.8359 7.33053 29.9522 9.14145C29.9448 9.15641 29.8772 9.36719 29.6474 9.43454C29.5392 9.46571 27.4841 9.51311 27.4841 9.51311C27.4841 9.51311 24.2209 9.72139 23.3052 7.32429C23.2941 7.29561 23.315 7.26443 23.3445 7.26443C25.3639 7.26443 28.2917 7.27066 28.3236 7.27066C29.0144 7.27066 29.5748 6.70195 29.5748 6.00103C29.5748 5.30011 29.0144 4.73139 28.3236 4.73139C28.3064 4.73139 25.6958 4.73139 23.347 4.73139C23.3163 4.73139 23.2966 4.70021 23.3077 4.67153C24.2012 2.24076 26.8315 2.63736 27.4743 2.63736C28.9234 2.63736 30.2619 2.64235 30.2939 2.64235C30.5901 2.64235 30.8617 2.53759 31.0768 2.36174C31.362 2.12976 31.5451 1.77306 31.5451 1.37272C31.5451 0.671796 30.9846 0.103079 30.2939 0.103079C30.2767 0.103079 30.241 0.105573 30.2398 0.105573C30.1894 0.105573 26.5144 0.103079 26.5033 0.103079C26.4935 0.103079 26.4837 0.103079 26.4726 0.103079C25.5778 0.108067 24.7297 0.317595 23.9738 0.689257C22.9807 1.17691 22.1462 1.94393 21.566 2.88805C21.5464 2.92048 21.4984 2.91299 21.4886 2.87558C21.1113 1.43632 19.8699 0.145483 17.9021 0.103079H12.7214C12.0147 0.103079 11.4518 0.731661 11.4518 1.45129C11.4518 1.46875 11.4542 1.48621 11.4542 1.50492C11.4542 1.50492 11.4542 1.50616 11.4542 1.50741C11.4542 1.58349 11.4505 5.46349 11.4518 8.12125C11.453 8.12125 11.4555 8.12125 11.4567 8.12125C11.4567 9.40585 11.4567 10.4448 11.4567 10.4448C11.4542 10.4772 11.4518 10.5096 11.4518 10.5433C11.4518 11.4887 12.027 11.9351 12.7337 11.9351C13.4404 11.9351 14.0144 11.4525 14.0108 10.5433C14.0108 10.5258 14.0083 10.5084 14.0083 10.4897C14.0083 10.4897 14.0083 10.4884 14.0083 10.4872C14.0083 10.4448 14.0095 9.30109 14.0108 7.84063V7.82691C14.0108 7.70094 14.1115 7.59868 14.2357 7.59868H16.3546C16.4038 7.60117 16.4665 7.62611 16.5304 7.65979C16.5366 7.66353 16.5415 7.66727 16.5464 7.67351C17.6919 9.31106 19.0525 11.2579 19.0537 11.2592C19.071 11.2866 19.0857 11.3165 19.1054 11.3427C19.5491 11.9252 20.3492 12.1247 20.9748 11.7019C21.6004 11.2791 21.6004 10.4173 21.1899 9.83114C21.1789 9.81617 21.1678 9.80245 21.1567 9.78749C21.1567 9.78749 20.4525 8.82092 19.538 7.5413L19.5589 7.53881C19.5208 7.48643 19.5073 7.41908 19.522 7.35547C19.5306 7.3193 19.5552 7.2532 19.629 7.21454C20.0137 7.0125 20.3529 6.74809 20.6381 6.4363C20.6639 6.40886 20.7093 6.42382 20.7118 6.46249C20.8888 8.786 22.3932 10.7329 24.4569 11.5211C25.0198 11.7356 25.6245 11.8653 26.255 11.8915C26.3374 11.8952 29.7395 11.8915 30.1132 11.8915C30.1132 11.8915 30.1157 11.8915 30.1169 11.8915C31.641 11.7917 32.0183 10.7803 32.1424 10.5296C33.1097 8.57522 35.2164 4.28116 35.3086 4.09034C35.3209 4.09283 35.3332 4.09533 35.3442 4.09907V4.29113C35.3442 6.13822 35.3442 7.9853 35.3455 9.83239C35.3455 9.96085 35.3565 10.0906 35.3774 10.2178C35.6232 11.7343 37.3489 12.4914 38.605 11.6346C39.0635 11.3215 39.3548 10.8738 39.5957 10.3836C40.5937 8.34824 41.593 6.31407 42.5923 4.27991C42.5923 4.27991 42.5923 4.27866 42.5923 4.27741L42.7139 4.30735V4.35225C42.7139 6.17439 42.7115 7.99778 42.7139 9.81992C42.7164 11.354 44.2097 12.4091 45.5851 11.8466C46.2156 11.5884 46.6176 11.0896 46.9125 10.4897C47.7827 8.7199 49.8034 4.58048 49.9288 4.32107C49.9607 4.25621 49.9951 4.19261 50.0283 4.129L50.059 4.14397C50.059 4.21131 50.0713 9.9621 50.091 10.1442C50.2237 11.3614 51.486 12.2432 52.6561 11.9389C53.4194 11.7406 53.9049 11.213 54.2441 10.5283C55.2114 8.57398 57.3181 4.27991 57.4103 4.08909C57.4226 4.09158 57.4349 4.09408 57.4459 4.09782C57.4459 4.09782 57.4398 10.668 57.4398 10.7017C57.4398 11.4188 58.0125 12 58.7193 12C59.426 12 59.9988 11.4188 59.9988 10.7017C59.9988 10.6842 59.9963 10.6468 59.9963 10.6456V2.09608H60ZM17.2998 5.14795H14.2787C14.1312 5.14795 14.012 5.02697 14.012 4.87731V2.88306C14.012 2.7334 14.1165 2.64485 14.2639 2.64485H17.3011C18.0016 2.64485 18.7563 3.00778 18.7563 3.87956C18.7563 4.75135 18.0016 5.14795 17.3011 5.14795H17.2998ZM2.59118 4.74636C2.49285 5.24024 2.25563 6.16067 2.65263 7.41534C2.99432 8.47794 3.88911 8.92818 4.82077 9.21129C5.4009 9.38714 6.23546 9.36345 6.79962 9.36469C7.31092 9.36469 7.78904 9.36469 8.19711 9.36469C8.28314 9.36469 8.35197 9.2936 8.35197 9.2063C8.35197 8.55277 8.35197 7.93916 8.35197 7.43155C8.35197 7.34425 8.28191 7.27441 8.19711 7.27441C6.87336 7.27441 5.95031 7.27191 5.70818 7.27441C5.01742 7.28064 4.45695 6.93018 4.45695 6.00477C4.45695 5.18786 5.01742 4.73513 5.70818 4.73513C5.74013 4.73513 7.60591 4.73513 9.60197 4.73513C10.2927 4.73513 10.8532 5.30385 10.8532 6.00477C10.8532 6.0372 10.847 10.7753 10.847 10.7877C10.8458 10.7877 10.8434 10.7877 10.8421 10.7877C10.7659 11.4151 10.2399 11.9002 9.60197 11.9002C9.57001 11.9002 9.53928 11.8977 9.50733 11.8952C9.50733 11.8952 5.64549 11.8977 5.56314 11.8952C4.93261 11.8678 4.08822 11.7343 3.52529 11.5198C1.32766 10.6792 -0.0698238 8.79597 0.00269314 6.00477C0.0641482 3.66879 1.13592 1.67703 3.0779 0.721684C3.8338 0.351269 4.88837 0.114303 5.78315 0.109315C5.79298 0.109315 5.80282 0.109315 5.81388 0.109315C5.82494 0.109315 5.83477 0.109315 5.84584 0.109315C7.78536 0.109315 9.58599 0.109315 9.60443 0.109315C10.2952 0.109315 10.8556 0.678032 10.8556 1.37895C10.8556 1.7793 10.6725 2.13475 10.3874 2.36797C10.1735 2.54258 9.90064 2.64859 9.60443 2.64859C9.57247 2.64859 8.23398 2.6436 6.78487 2.6436C6.21088 2.6436 4.87608 2.60369 4.46556 2.7783C3.55479 3.16492 2.95868 3.65133 2.59855 4.7264C2.59609 4.73264 2.59487 4.74012 2.59364 4.7476L2.59118 4.74636Z" fill="#008080"/>
</svg>
